<?xml version="1.0" encoding="utf-8"?>
<!-- Generator: Adobe Illustrator 24.3.0, SVG Export Plug-In . SVG Version: 6.00 Build 0)  -->
<svg version="1.1" id="Layer_1" xmlns="http://www.w3.org/2000/svg" xmlns:xlink="http://www.w3.org/1999/xlink" x="0px" y="0px"
	 viewBox="0 0 32 32" style="enable-background:new 0 0 32 32;" xml:space="preserve">
<style type="text/css">
	.st0{fill:#435DA5;}
	.st1{fill:#BCAB87;}
</style>
<g id="Layer_21">
	<path class="st0" d="M27.6,7h-2c0.6,0,1,0.4,1,1c0,0.1,0,0.2-0.1,0.3l-5.3,16c-0.1,0.4-0.5,0.7-1,0.7h2c0.4,0,0.8-0.3,1-0.7l5.3-16
		c0.2-0.5-0.1-1.1-0.6-1.3C27.8,7,27.7,7,27.6,7z"/>
	<path class="st1" d="M13,15c-0.2,0-0.3,0-0.5-0.1l-7-4C5,10.6,4.9,10,5.1,9.5S6,8.9,6.5,9.1l6.6,3.8l10.6-3.8
		c0.5-0.2,1.1,0.1,1.3,0.6c0.2,0.5-0.1,1-0.6,1.2l-11,4C13.2,15,13.1,15,13,15z"/>
	<path class="st1" d="M11,23H5c-0.6,0-1-0.4-1-1s0.4-1,1-1h6c0.6,0,1,0.4,1,1S11.6,23,11,23z"/>
	<path class="st1" d="M10,19H3c-0.6,0-1-0.4-1-1s0.4-1,1-1h7c0.6,0,1,0.4,1,1S10.6,19,10,19z"/>
	<path class="st1" d="M7,15H4c-0.6,0-1-0.4-1-1s0.4-1,1-1h3c0.6,0,1,0.4,1,1S7.6,15,7,15z"/>
	<path class="st0" d="M22.3,26H5c-0.6,0-1-0.4-1-1s0.4-1,1-1h17.3l5.3-16H3C2.4,8,2,7.6,2,7s0.4-1,1-1h24.6c1.1,0,2,0.9,2,2
		c0,0.2,0,0.4-0.1,0.6l-5.3,16C23.9,25.4,23.1,26,22.3,26z"/>
</g>
</svg>
