<?xml version="1.0" encoding="utf-8"?>
<!-- Generator: Adobe Illustrator 24.3.0, SVG Export Plug-In . SVG Version: 6.00 Build 0)  -->
<svg version="1.1" id="Layer_1" xmlns="http://www.w3.org/2000/svg" xmlns:xlink="http://www.w3.org/1999/xlink" x="0px" y="0px"
	 viewBox="0 0 24 24" style="enable-background:new 0 0 24 24;" xml:space="preserve">
<style type="text/css">
	.st0{fill:#BCAB87;}
	.st1{fill:#435DA5;}
</style>
<g id="aim">
	<path class="st0" d="M12,8c-2.2,0-4,1.8-4,4s1.8,4,4,4s4-1.8,4-4S14.2,8,12,8z M12,14c-1.1,0-2-0.9-2-2s0.9-2,2-2s2,0.9,2,2
		S13.1,14,12,14z"/>
	<path class="st1" d="M23,11h-1c-0.5-4.7-4.2-8.5-9-8.9V1c0-0.6-0.4-1-1-1s-1,0.4-1,1v1c-4.7,0.5-8.5,4.2-8.9,9H1c-0.6,0-1,0.4-1,1
		s0.4,1,1,1h1c0.5,4.8,4.2,8.5,9,9v1c0,0.6,0.4,1,1,1s1-0.4,1-1v-1c4.8-0.5,8.5-4.2,9-9h1c0.6,0,1-0.4,1-1S23.6,11,23,11z M13,19.9
		V19c0-0.6-0.4-1-1-1s-1,0.4-1,1v0.9c-3.6-0.5-6.5-3.3-6.9-6.9H5c0.6,0,1-0.4,1-1s-0.4-1-1-1H4.1C4.5,7.4,7.4,4.5,11,4.1V5
		c0,0.6,0.4,1,1,1s1-0.4,1-1V4.1c3.6,0.5,6.5,3.3,6.9,6.9H19c-0.6,0-1,0.4-1,1s0.4,1,1,1h0.9C19.5,16.6,16.6,19.5,13,19.9z"/>
</g>
</svg>
