<?xml version="1.0" encoding="utf-8"?>
<!-- Generator: Adobe Illustrator 24.3.0, SVG Export Plug-In . SVG Version: 6.00 Build 0)  -->
<svg version="1.1" id="Layer_1_1_" xmlns="http://www.w3.org/2000/svg" xmlns:xlink="http://www.w3.org/1999/xlink" x="0px" y="0px"
	 viewBox="0 0 64 64" style="enable-background:new 0 0 64 64;" xml:space="preserve">
<style type="text/css">
	.st0{fill:#BCAB87;}
	.st1{fill:#435DA5;}
</style>
<g>
	<g>
		<path class="st0" d="M21.3,37.4c-0.3-0.5-0.5-1.1-0.7-1.6L16,35v-6l4.6-0.8c0.2-0.6,0.4-1.1,0.7-1.6l-2.7-3.8l4.2-4.2l3.8,2.7
			c0.5-0.3,1.1-0.5,1.6-0.7L29,16h6l0.8,4.6c0.6,0.2,1.1,0.4,1.6,0.7l3.8-2.7l4.2,4.2l-2.7,3.8c0.3,0.5,0.5,1.1,0.7,1.6L48,29v6
			l-4.6,0.8c-0.2,0.6-0.4,1.1-0.7,1.6l2.7,3.8l-4.2,4.2l-3.8-2.7c-0.5,0.3-1.1,0.5-1.6,0.7L35,48h-6l-0.8-4.6
			c-0.6-0.2-1.1-0.4-1.6-0.7l-3.8,2.7l-4.2-4.2L21.3,37.4z"/>
	</g>
	<g>
		<path class="st1" d="M32,41c5,0,9-4,9-9s-4-9-9-9s-9,4-9,9S27,41,32,41z M31,32c0-0.6,0.4-1,1-1c0.6,0,1,0.4,1,1c0,0.6-0.4,1-1,1
			S31,32.6,31,32z M32,25c3.9,0,7,3.1,7,7c0,3.5-2.6,6.4-6,6.9v-4.1c1.2-0.4,2-1.5,2-2.8c0-1.7-1.3-3-3-3s-3,1.3-3,3
			c0,1.3,0.8,2.4,2,2.8v4.1c-3.4-0.5-6-3.4-6-6.9C25,28.1,28.1,25,32,25z"/>
		<path class="st1" d="M43.6,26.2l-1.8,0.9c0.2,0.5,0.5,1,0.6,1.5l0.2,0.6l4.4,0.7v4.3l-4.4,0.7l-0.2,0.6c-0.2,0.5-0.4,1-0.6,1.5
			l-0.3,0.5l2.6,3.6l-3,3l-3.6-2.6l-0.5,0.3c-0.5,0.2-1,0.5-1.5,0.6l-0.6,0.2L34.2,47h-4.3l-0.7-4.4l-0.6-0.2
			c-0.5-0.2-1-0.4-1.5-0.6l-0.5-0.3l-3.6,2.6l-3.6-3.6l-1.4,1.4l4.8,4.8l4-2.9c0.2,0.1,0.4,0.2,0.6,0.3l0.8,4.9h7.7l0.8-4.9
			c0.2-0.1,0.4-0.2,0.6-0.3l4,2.9l5.4-5.4l-2.9-4c0.1-0.2,0.2-0.4,0.3-0.6l4.9-0.8v-7.7l-4.9-0.8C44,26.9,43.8,26.6,43.6,26.2z"/>
		<path class="st1" d="M15,28.2v7.7l4.9,0.8c0.2,0.4,0.3,0.8,0.5,1.2l1.8-0.9c-0.2-0.5-0.5-1-0.6-1.5l-0.2-0.6L17,34.2v-4.3l4.4-0.7
			l0.2-0.6c0.2-0.5,0.4-1,0.6-1.5l0.3-0.5l-2.6-3.6l3-3l3.6,2.6l0.5-0.3c0.5-0.2,1-0.5,1.5-0.6l0.6-0.2l0.7-4.4h4.3l0.7,4.4l0.6,0.2
			c0.5,0.2,1,0.4,1.5,0.6l0.5,0.3l3.6-2.6l3.6,3.6l1.4-1.4l-4.8-4.8l-4,2.9c-0.2-0.1-0.4-0.2-0.6-0.3L35.8,15h-7.7l-0.8,4.9
			c-0.2,0.1-0.4,0.2-0.6,0.3l-4-2.9l-5.4,5.4l2.9,4c-0.1,0.2-0.2,0.4-0.3,0.6L15,28.2z"/>
		<rect x="31" y="19" class="st1" width="2" height="2"/>
		<rect x="22.5" y="22.6" transform="matrix(0.7071 -0.7071 0.7071 0.7071 -9.794 23.5371)" class="st1" width="2" height="2"/>
		<rect x="19" y="31.1" class="st1" width="2" height="2"/>
		<rect x="22.5" y="39.5" transform="matrix(0.7071 -0.7071 0.7071 0.7071 -21.7399 28.4848)" class="st1" width="2" height="2"/>
		<rect x="31" y="43" class="st1" width="2" height="2"/>
		<rect x="39.5" y="39.5" transform="matrix(0.7071 -0.7071 0.7071 0.7071 -16.7699 40.4846)" class="st1" width="2" height="2"/>
		<rect x="43" y="31" class="st1" width="2" height="2"/>
		<rect x="39.5" y="22.5" transform="matrix(0.7071 -0.7071 0.7071 0.7071 -4.77 35.5146)" class="st1" width="2" height="2"/>
		<path class="st1" d="M63,31.8C62.9,31.5,57.5,11,32,11S1.1,31.5,1,31.8L1,32L1,32.2C1.1,32.5,6.5,53,32,53s30.9-20.5,31-20.8
			L63,32L63,31.8z M3,32c0.5-1.7,4.2-12.4,16.6-17C14.4,18.8,11,25,11,32c0,7,3.5,13.2,8.8,17.1C7.2,44.6,3.6,33.9,3,32z M32,13
			c10.5,0,19,8.5,19,19s-8.5,19-19,19s-19-8.5-19-19S21.5,13,32,13z M44.3,49c5.3-3.8,8.7-10,8.7-17c0-7-3.5-13.2-8.8-17.1
			C56.8,19.4,60.4,30.1,61,32C60.4,33.7,56.7,44.4,44.3,49z"/>
	</g>
	<g>
		<path class="st1" d="M31,58c0,0.6-0.4,1-1,1H13.8c-0.4-1.2-1.5-2-2.8-2c-1.7,0-3,1.3-3,3s1.3,3,3,3c1.3,0,2.4-0.8,2.8-2H30
			c1.7,0,3-1.3,3-3v-3h-2V58z M11,61c-0.6,0-1-0.4-1-1s0.4-1,1-1s1,0.4,1,1S11.6,61,11,61z"/>
		<path class="st1" d="M11,54c1.7,0,3-1.3,3-3v-1h-2v1c0,0.6-0.4,1-1,1H6.8c-0.4-1.2-1.5-2-2.8-2c-1.7,0-3,1.3-3,3s1.3,3,3,3
			c1.3,0,2.4-0.8,2.8-2H11z M4,54c-0.6,0-1-0.4-1-1s0.4-1,1-1s1,0.4,1,1S4.6,54,4,54z"/>
		<path class="st1" d="M60,8c-1.3,0-2.4,0.8-2.8,2H53c-1.7,0-3,1.3-3,3v1h2v-1c0-0.6,0.4-1,1-1h4.2c0.4,1.2,1.5,2,2.8,2
			c1.7,0,3-1.3,3-3S61.7,8,60,8z M60,12c-0.6,0-1-0.4-1-1s0.4-1,1-1s1,0.4,1,1S60.6,12,60,12z"/>
		<path class="st1" d="M53,7c1.7,0,3-1.3,3-3s-1.3-3-3-3c-1.3,0-2.4,0.8-2.8,2H34c-1.7,0-3,1.3-3,3v3h2V6c0-0.6,0.4-1,1-1h16.2
			C50.6,6.2,51.7,7,53,7z M53,3c0.6,0,1,0.4,1,1s-0.4,1-1,1s-1-0.4-1-1S52.4,3,53,3z"/>
	</g>
</g>
</svg>
